<svg viewBox="0 0 128 128" xmlns="http://www.w3.org/2000/svg"><defs><linearGradient id="bgdrawdb" x1="0" y1="0" x2="0.5" y2="1"><stop offset="0" stop-color="#7ba3f2"/><stop offset="1" stop-color="#3c5d9d"/></linearGradient><linearGradient id="gldrawdb" x1="0" y1="0" x2="0" y2="1"><stop offset="0" stop-color="#fff" stop-opacity="0.28"/><stop offset="0.55" stop-color="#fff" stop-opacity="0"/></linearGradient><filter id="shdrawdb" x="-20%" y="-20%" width="140%" height="140%"><feDropShadow dx="0" dy="2" stdDeviation="1.5" flood-color="#000" flood-opacity="0.30"/></filter></defs><rect width="128" height="128" rx="30" fill="url(#bgdrawdb)"/><rect width="128" height="128" rx="30" fill="url(#gldrawdb)"/><rect x="1" y="1" width="126" height="126" rx="29" fill="none" stroke="#fff" stroke-opacity="0.20" stroke-width="1.2"/><g filter="url(#shdrawdb)"><ellipse cx="64" cy="44" rx="22" ry="8" fill="none" stroke="#ffffff" stroke-width="6"/><path d="M42 44 L42 82" fill="none" stroke="#ffffff" stroke-width="6" stroke-linecap="round" stroke-linejoin="round"/><path d="M86 44 L86 82" fill="none" stroke="#ffffff" stroke-width="6" stroke-linecap="round" stroke-linejoin="round"/><path d="M42 82 A22 8 0 0 0 86 82" fill="none" stroke="#ffffff" stroke-width="6" stroke-linecap="round" stroke-linejoin="round"/><path d="M42 63 A22 8 0 0 0 86 63" fill="none" stroke="#ffffff" stroke-width="6" stroke-linecap="round" stroke-linejoin="round"/><path d="M30 54 L42 54" fill="none" stroke="#ffffff" stroke-width="6" stroke-linecap="round" stroke-linejoin="round"/><circle cx="30" cy="54" r="5" fill="#ffffff"/><path d="M86 72 L98 72" fill="none" stroke="#ffffff" stroke-width="6" stroke-linecap="round" stroke-linejoin="round"/><circle cx="98" cy="72" r="5" fill="#ffffff"/></g></svg>