<svg viewBox="0 0 128 128" xmlns="http://www.w3.org/2000/svg">
  <defs><linearGradient id="g_digitorn_craft" x1="0" y1="0" x2="1" y2="1"><stop offset="0" stop-color="#f8be5d"/><stop offset="1" stop-color="#bf7b08"/></linearGradient></defs>
  <g transform="translate(16,16) scale(4)" fill="none" stroke="url(#g_digitorn_craft)" stroke-width="1.9" stroke-linecap="round" stroke-linejoin="round">
    <path d="M11.017 2.814a1 1 0 0 1 1.966 0l1.051 5.558a2 2 0 0 0 1.594 1.594l5.558 1.051a1 1 0 0 1 0 1.966l-5.558 1.051a2 2 0 0 0-1.594 1.594l-1.051 5.558a1 1 0 0 1-1.966 0l-1.051-5.558a2 2 0 0 0-1.594-1.594l-5.558-1.051a1 1 0 0 1 0-1.966l5.558-1.051a2 2 0 0 0 1.594-1.594z" />
    <path d="M20 2v4" />
    <path d="M22 4h-4" />
    <circle cx="4" cy="20" r="2" />
  </g>
</svg>
